<svg xmlns="http://www.w3.org/2000/svg" width="25" height="24" viewBox="0 0 25 24" fill="none">
<g clip-path="url(#clip0_7_1017)">
<path d="M9.94794 19.3103C12.0931 19.3104 14.1769 18.5947 15.8693 17.2765L22.254 23.6613C22.731 24.1219 23.491 24.1087 23.9517 23.6317C24.401 23.1665 24.401 22.4289 23.9517 21.9636L17.5669 15.5789C20.8378 11.3683 20.0761 5.30344 15.8656 2.03253C11.655 -1.23837 5.59018 -0.476692 2.31928 3.73385C-0.95163 7.94439 -0.189949 14.0093 4.02059 17.2802C5.71572 18.5971 7.80138 19.3114 9.94794 19.3103ZM4.81784 4.52741C7.65115 1.69405 12.2448 1.694 15.0782 4.5273C17.9116 7.36061 17.9116 11.9543 15.0783 14.7877C12.245 17.621 7.6513 17.6211 4.81795 14.7878C4.81789 14.7877 4.81789 14.7877 4.81784 14.7877C1.98454 11.975 1.96784 7.39805 4.7805 4.56474C4.79293 4.55226 4.80536 4.53984 4.81784 4.52741Z" fill="#707070"/>
</g>
<defs>
<clipPath id="clip0_7_1017">
<rect width="24" height="24" fill="white" transform="translate(0.288696)"/>
</clipPath>
</defs>
</svg>