<svg width="40" height="41" viewBox="0 0 40 41" fill="none" xmlns="http://www.w3.org/2000/svg">
<g clip-path="url(#clip0_1826_3908)">
<path d="M40 20.8872C40 9.84158 31.0456 0.887207 20 0.887207C8.95437 0.887207 0 9.84142 0 20.8872C0 30.8697 7.31375 39.1439 16.875 40.6442V26.6685H11.7969V20.8872H16.875V16.481C16.875 11.4685 19.8609 8.69971 24.4292 8.69971C26.6175 8.69971 28.9062 9.09033 28.9062 9.09033V14.0122H26.3844C23.8997 14.0122 23.125 15.5539 23.125 17.1356V20.8872H28.6719L27.7852 26.6685H23.125V40.6442C32.6863 39.1439 40 30.8699 40 20.8872Z" fill="#1877F2"/>
<path d="M27.7852 26.6685L28.6719 20.8872H23.125V17.1356C23.125 15.5538 23.8998 14.0122 26.3844 14.0122H28.9062V9.09033C28.9062 9.09033 26.6175 8.69971 24.4292 8.69971C19.8609 8.69971 16.875 11.4685 16.875 16.481V20.8872H11.7969V26.6685H16.875V40.6442C17.9088 40.8062 18.9536 40.8875 20 40.8872C21.0464 40.8875 22.0912 40.8063 23.125 40.6442V26.6685H27.7852Z" fill="white"/>
</g>
<defs>
<clipPath id="clip0_1826_3908">
<rect width="40" height="40" fill="white" transform="translate(0 0.887207)"/>
</clipPath>
</defs>
</svg>
