<svg width="32" height="32" viewBox="0 0 32 32" fill="none" xmlns="http://www.w3.org/2000/svg">
<g clip-path="url(#clip0_1094_4548)">
<path d="M18.0007 5.57333C17.6327 5.57333 17.334 5.27467 17.334 4.90667V2.66667C17.334 1.932 16.7353 1.33333 16.0007 1.33333C15.266 1.33333 14.6673 1.932 14.6673 2.66667V4.90667C14.6673 5.27467 14.3687 5.57333 14.0007 5.57333C13.6327 5.57333 13.334 5.276 13.334 4.90667V2.66667C13.334 1.196 14.53 0 16.0007 0C17.4713 0 18.6673 1.196 18.6673 2.66667V4.90667C18.6673 5.276 18.3687 5.57333 18.0007 5.57333Z" fill="#454545"/>
<path d="M16.0007 32.0003C13.4273 32.0003 11.334 29.907 11.334 27.3337C11.334 26.9657 11.6327 26.667 12.0007 26.667C12.3687 26.667 12.6673 26.9657 12.6673 27.3337C12.6673 29.171 14.1633 30.667 16.0007 30.667C17.838 30.667 19.334 29.171 19.334 27.3337C19.334 26.9657 19.6327 26.667 20.0007 26.667C20.3687 26.667 20.6673 26.9657 20.6673 27.3337C20.6673 29.907 18.574 32.0003 16.0007 32.0003Z" fill="#454545"/>
<path d="M27.3337 28H4.66699C3.56433 28 2.66699 27.1027 2.66699 26C2.66699 25.4147 2.92166 24.8613 3.36699 24.48C5.46833 22.704 6.66699 20.12 6.66699 17.384V13.3333C6.66699 8.18667 10.8537 4 16.0003 4C21.147 4 25.3337 8.18667 25.3337 13.3333V17.384C25.3337 20.1213 26.5323 22.704 28.623 24.4707C29.079 24.8613 29.3337 25.4147 29.3337 26C29.3337 27.1027 28.4377 28 27.3337 28ZM16.0003 5.33333C11.5883 5.33333 8.00033 8.92133 8.00033 13.3333V17.384C8.00033 20.5147 6.62966 23.468 4.23899 25.4893C4.08566 25.62 4.00033 25.8053 4.00033 26C4.00033 26.368 4.29899 26.6667 4.66699 26.6667H27.3337C27.7017 26.6667 28.0003 26.368 28.0003 26C28.0003 25.8053 27.915 25.62 27.767 25.4933C25.3723 23.468 24.0003 20.5133 24.0003 17.384V13.3333C24.0003 8.92133 20.4123 5.33333 16.0003 5.33333Z" fill="#454545"/>
</g>
<defs>
<clipPath id="clip0_1094_4548">
<rect width="32" height="32" fill="white"/>
</clipPath>
</defs>
</svg>
